<svg xmlns="http://www.w3.org/2000/svg" width="80" height="80" viewBox="0 0 80 80">
  <path d="M73.4 7H6.6C3.6 7 1 9.5 1 12.5v55c0 3 2.5 5.5 5.6 5.5h66.8c3 0 5.6-2.5 5.6-5.5v-55c0-3-2.5-5.5-5.6-5.5zm-45.8 4c1.6 0 2.8 1.4 2.8 3 0 1.4-1.2 2.6-2.8 2.6-1.5 0-2.8-1.2-2.8-2.7 0-1.8 1.3-3 2.8-3zM19 11c1.6 0 3 1.4 3 3 0 1.4-1.4 2.6-3 2.6-1.4 0-2.7-1.2-2.7-2.7 0-1.8 1.3-3 2.8-3zm-8.3 0c1.6 0 2.8 1.4 2.8 3 0 1.4-1.2 2.6-2.8 2.6C9.2 16.6 8 15.4 8 14c0-1.6 1.2-3 2.7-3zm62.7 56.5H6.6V20.8h66.8v46.7z"/>
  <path d="M43.3 45.5l-25.6 13v-3.8L39.5 44 17.7 33v-3.8l25.6 13zm19-3.5v3.5H48.6V42z"/>
</svg>
